  0
SECTION
  2
TABLES
  0
TABLE
  2
STYLE
 70
     2
  0
STYLE
  2
GREEKS
 70
     0
 40
0.0
 41
1.0
 50
0.0
 71
     0
 42
0.2
  3
greeks
  4

  0
STYLE
  2
MY
 70
    64
 40
1.0
 41
1.0
 50
0.0
 71
     0
 42
1.0
  3
MONOTXT
  4

  0
ENDTAB
  0
ENDSEC
  0
SECTION
 2
ENTITIES
 0
LINE
8
0
10
       79.500000
20
      264.451100
11
       79.500000
21
      178.500000
0
LINE
8
0
10
       79.500000
20
      264.451100
11
       81.000000
21
      265.951100
0
LINE
8
0
10
       81.000000
20
      265.951100
11
      112.000000
21
      265.951100
0
LINE
8
0
10
      112.000000
20
      265.951100
11
      113.500000
21
      264.451100
0
LINE
8
0
10
       79.500000
20
      259.201100
11
      113.500000
21
      259.201100
0
LINE
8
0
10
      113.500000
20
      264.451100
11
      113.500000
21
      208.500000
0
LINE
8
0
10
      113.500000
20
      208.500000
11
      130.500000
21
      208.500000
0
LINE
8
0
10
      130.500000
20
      208.500000
11
      132.500000
21
      206.500000
0
LINE
8
0
10
      132.500000
20
      206.500000
11
      132.500000
21
      178.500000
0
LINE
8
0
10
       79.500000
20
       92.548900
11
       79.500000
21
      178.500000
0
LINE
8
0
10
       79.500000
20
       92.548900
11
       81.000000
21
       91.048900
0
LINE
8
0
10
       81.000000
20
       91.048900
11
      112.000000
21
       91.048900
0
LINE
8
0
10
      112.000000
20
       91.048900
11
      113.500000
21
       92.548900
0
LINE
8
0
10
       79.500000
20
       97.798900
11
      113.500000
21
       97.798900
0
LINE
8
0
10
      113.500000
20
       92.548900
11
      113.500000
21
      148.500000
0
LINE
8
0
10
      113.500000
20
      148.500000
11
      130.500000
21
      148.500000
0
LINE
8
0
10
      130.500000
20
      148.500000
11
      132.500000
21
      150.500000
0
LINE
8
0
10
      132.500000
20
      150.500000
11
      132.500000
21
      178.500000
0
LINE
8
0
10
       79.500000
20
      206.500000
11
       81.500000
21
      208.500000
0
LINE
8
0
10
       79.500000
20
      251.701100
11
       81.500000
21
      249.701100
0
LINE
8
0
10
       81.500000
20
      249.701100
11
       88.000000
21
      249.701100
0
LINE
8
0
10
       88.000000
20
      249.701100
11
       88.000000
21
      208.500000
0
LINE
8
0
10
       88.000000
20
      208.500000
11
       81.500000
21
      208.500000
0
LINE
8
0
10
       81.500000
20
      249.701100
11
       81.500000
21
      208.500000
0
LINE
8
0
10
       88.000000
20
      241.000000
11
       88.000000
21
      241.000000
0
LINE
8
0
10
      113.500000
20
      251.701100
11
      111.500000
21
      249.701100
0
LINE
8
0
10
      111.500000
20
      249.701100
11
      105.000000
21
      249.701100
0
LINE
8
0
10
      105.000000
20
      249.701100
11
      105.000000
21
      208.500000
0
LINE
8
0
10
      105.000000
20
      208.500000
11
      113.500000
21
      208.500000
0
LINE
8
0
10
      111.500000
20
      249.701100
11
      111.500000
21
      208.500000
0
LINE
8
0
10
       88.000000
20
      241.000000
11
      105.000000
21
      241.000000
0
LINE
8
0
10
       88.000000
20
      216.000000
11
      105.000000
21
      216.000000
0
LINE
8
0
10
       79.500000
20
      150.500000
11
       81.500000
21
      148.500000
0
LINE
8
0
10
       79.500000
20
      105.298900
11
       81.500000
21
      107.298900
0
LINE
8
0
10
       81.500000
20
      107.298900
11
       88.000000
21
      107.298900
0
LINE
8
0
10
       88.000000
20
      107.298900
11
       88.000000
21
      148.500000
0
LINE
8
0
10
       88.000000
20
      148.500000
11
       81.500000
21
      148.500000
0
LINE
8
0
10
       81.500000
20
      107.298900
11
       81.500000
21
      148.500000
0
LINE
8
0
10
       88.000000
20
      116.000000
11
       88.000000
21
      116.000000
0
LINE
8
0
10
      113.500000
20
      105.298900
11
      111.500000
21
      107.298900
0
LINE
8
0
10
      111.500000
20
      107.298900
11
      105.000000
21
      107.298900
0
LINE
8
0
10
      105.000000
20
      107.298900
11
      105.000000
21
      148.500000
0
LINE
8
0
10
      105.000000
20
      148.500000
11
      113.500000
21
      148.500000
0
LINE
8
0
10
      111.500000
20
      107.298900
11
      111.500000
21
      148.500000
0
LINE
8
0
10
       88.000000
20
      116.000000
11
      105.000000
21
      116.000000
0
LINE
8
0
10
       88.000000
20
      141.000000
11
      105.000000
21
      141.000000
0
LINE
8
0
10
       79.500000
20
      198.800000
11
      132.500000
21
      198.800000
0
LINE
8
0
10
       81.500000
20
      195.500000
11
      130.500000
21
      195.500000
0
LINE
8
0
10
       79.500000
20
      197.500000
11
       81.500000
21
      195.500000
0
LINE
8
0
10
       81.500000
20
      195.500000
11
      130.500000
21
      195.500000
0
LINE
8
0
10
      130.500000
20
      195.500000
11
      132.500000
21
      197.500000
0
LINE
8
0
10
       81.500000
20
      161.500000
11
      130.500000
21
      161.500000
0
LINE
8
0
10
       79.500000
20
      159.500000
11
       81.500000
21
      161.500000
0
LINE
8
0
10
       81.500000
20
      161.500000
11
      130.500000
21
      161.500000
0
LINE
8
0
10
      130.500000
20
      161.500000
11
      132.500000
21
      159.500000
0
LINE
8
0
10
       81.500000
20
      161.500000
11
       81.500000
21
      195.500000
0
LINE
8
0
10
      130.500000
20
      161.500000
11
      130.500000
21
      195.500000
0
LINE
8
0
10
      278.000000
20
      194.748100
11
      278.000000
21
      198.800000
0
LINE
8
0
10
      278.000000
20
      198.800000
11
      288.000000
21
      198.800000
0
LINE
8
0
10
      288.000000
20
      198.800000
11
      288.000000
21
      194.748100
0
ARC
8
0
10
      283.000000
 20
      178.500000
 40
       17.000000
 50
      107.104700
 51
      360.000000
 0
ARC
8
0
10
      283.000000
 20
      178.500000
 40
       17.000000
 50
    0.000000E+00
 51
       72.895350
 0
LINE
8
0
10
      288.000000
20
      198.800000
11
      316.000000
21
      198.800000
0
LINE
8
0
10
      283.000000
20
      161.500000
11
      316.000000
21
      161.500000
0
LINE
8
0
10
      278.000000
20
      198.800000
11
      278.000000
21
      216.800000
0
LINE
8
0
10
      288.000000
20
      198.800000
11
      288.000000
21
      211.800000
0
LINE
8
0
10
      278.000000
20
      208.800000
11
      288.000000
21
      208.800000
0
LINE
8
0
10
      314.000000
20
      161.500000
11
      313.508900
21
      166.475800
0
LINE
8
0
10
      313.508900
20
      166.475800
11
      314.006400
21
      165.500000
0
LINE
8
0
10
      314.006400
20
      165.500000
11
      314.507200
21
      166.474200
0
LINE
8
0
10
      314.507200
20
      166.474200
11
      314.000000
21
      161.500000
0
LINE
8
0
10
      314.000000
20
      161.500000
11
      314.000000
21
      198.800000
0
LINE
8
0
10
      314.000000
20
      198.800000
11
      314.491100
21
      193.824200
0
LINE
8
0
10
      314.491100
20
      193.824200
11
      313.993600
21
      194.800000
0
LINE
8
0
10
      313.993600
20
      194.800000
11
      313.492800
21
      193.825800
0
LINE
8
0
10
      313.492800
20
      193.825800
11
      314.000000
21
      198.800000
0
LINE
8
0
10
      260.000000
20
      208.800000
11
      278.000000
21
      208.800000
0
LINE
8
0
10
      278.000000
20
      208.800000
11
      273.025000
21
      208.300800
0
LINE
8
0
10
      273.025000
20
      208.300800
11
      274.000000
21
      208.800000
0
LINE
8
0
10
      274.000000
20
      208.800000
11
      273.025000
21
      209.299200
0
LINE
8
0
10
      273.025000
20
      209.299200
11
      278.000000
21
      208.800000
0
LINE
8
0
10
      288.000000
20
      208.800000
11
      292.975000
21
      209.299200
0
LINE
8
0
10
      292.975000
20
      209.299200
11
      292.000000
21
      208.800000
0
LINE
8
0
10
      292.000000
20
      208.800000
11
      292.975000
21
      208.300800
0
LINE
8
0
10
      292.975000
20
      208.300800
11
      288.000000
21
      208.800000
0
LINE
8
0
10
      288.000000
20
      208.800000
11
      306.000000
21
      208.800000
0
LINE
8
0
10
      278.000000
20
      214.800000
11
      281.164900
21
      218.670800
0
LINE
8
0
10
      281.164900
20
      218.670800
11
      280.828400
21
      217.628400
0
LINE
8
0
10
      280.828400
20
      217.628400
11
      281.870800
21
      217.964900
0
LINE
8
0
10
      281.870800
20
      217.964900
11
      278.000000
21
      214.800000
0
LINE
8
0
10
      278.000000
20
      214.800000
11
      288.000000
21
      224.800000
0
LINE
8
0
10
      288.000000
20
      224.800000
11
      298.000000
21
      224.800000
0
LINE
8
0
10
      297.041600
20
      231.800200
11
      293.000000
21
      224.800000
0
LINE
8
0
10
      293.000000
20
      224.800000
11
      290.979200
21
      228.300100
0
LINE
8
0
10
      273.000000
20
      151.500000
11
      288.000000
21
      198.800000
0
LINE
8
0
10
      288.000000
20
      198.800000
11
      286.971900
21
      193.906800
0
LINE
8
0
10
      286.971900
20
      193.906800
11
      286.790800
21
      194.987100
0
LINE
8
0
10
      286.790800
20
      194.987100
11
      286.020300
21
      194.208600
0
LINE
8
0
10
      286.020300
20
      194.208600
11
      288.000000
21
      198.800000
0
LINE
8
0
10
      256.000000
20
      151.500000
11
      273.000000
21
      151.500000
0
LINE
8
0
10
      238.700000
20
      202.500000
11
      241.920000
21
      208.100000
0
LINE
8
0
10
      241.080000
20
      202.500000
11
      244.300000
21
      208.100000
0
LINE
8
0
10
      238.000000
20
      201.800000
11
      270.900000
21
      201.800000
0
LINE
8
0
10
      270.900000
20
      201.800000
11
      270.900000
21
      208.800000
0
LINE
8
0
10
      270.900000
20
      208.800000
11
      238.000000
21
      208.800000
0
LINE
8
0
10
      238.000000
20
      208.800000
11
      238.000000
21
      201.800000
0
LINE
8
0
10
      245.000000
20
      201.800000
11
      245.000000
21
      208.800000
0
LINE
8
0
10
      263.900000
20
      201.800000
11
      263.900000
21
      208.800000
0
LINE
8
0
10
      239.750000
20
      199.700000
11
      243.250000
21
      199.700000
0
LINE
8
0
10
      238.700000
20
      198.300000
11
      244.300000
21
      198.300000
0
LINE
8
0
10
      239.750000
20
      196.900000
11
      243.250000
21
      196.900000
0
LINE
8
0
10
      238.000000
20
      194.800000
11
      270.900000
21
      194.800000
0
LINE
8
0
10
      270.900000
20
      194.800000
11
      270.900000
21
      201.800000
0
LINE
8
0
10
      270.900000
20
      201.800000
11
      238.000000
21
      201.800000
0
LINE
8
0
10
      238.000000
20
      201.800000
11
      238.000000
21
      194.800000
0
LINE
8
0
10
      245.000000
20
      194.800000
11
      245.000000
21
      201.800000
0
LINE
8
0
10
      263.900000
20
      194.800000
11
      263.900000
21
      201.800000
0
LINE
8
0
10
      378.700000
20
       86.350000
11
      380.800000
21
       86.350000
0
LINE
8
0
10
      379.750000
20
       86.700000
11
      379.750000
21
       88.800000
0
LINE
8
0
10
      378.700000
20
       87.750000
11
      380.800000
21
       87.750000
0
LINE
8
0
10
      111.500000
20
      208.500000
11
      158.500000
21
      208.500000
0
LINE
8
0
10
      105.000000
20
      228.500000
11
      180.500000
21
      228.500000
0
LINE
8
0
10
      110.800000
20
      249.701100
11
      190.500000
21
      249.701100
0
LINE
8
0
10
      111.900000
20
      265.951100
11
      200.500000
21
      265.951100
0
LINE
8
0
10
      130.500000
20
      161.500000
11
      147.500000
21
      161.500000
0
LINE
8
0
10
      130.500000
20
      148.500000
11
      142.500000
21
      148.500000
0
LINE
8
0
10
      152.500000
20
      148.500000
11
      158.500000
21
      148.500000
0
LINE
8
0
10
      105.000000
20
      128.500000
11
      180.500000
21
      128.500000
0
LINE
8
0
10
      110.800000
20
      107.298900
11
      190.500000
21
      107.298900
0
LINE
8
0
10
      111.900000
20
       91.048900
11
      200.500000
21
       91.048900
0
LINE
8
0
10
      147.500000
20
      161.500000
11
      147.009600
21
      166.475900
0
LINE
8
0
10
      147.009600
20
      166.475900
11
      147.507100
21
      165.500000
0
LINE
8
0
10
      147.507100
20
      165.500000
11
      148.007900
21
      166.474100
0
LINE
8
0
10
      148.007900
20
      166.474100
11
      147.500000
21
      161.500000
0
LINE
8
0
10
      147.500000
20
      161.500000
11
      147.500000
21
      195.500000
0
LINE
8
0
10
      157.500000
20
      148.500000
11
      157.005800
21
      153.475500
0
LINE
8
0
10
      157.005800
20
      153.475500
11
      157.504000
21
      152.500000
0
LINE
8
0
10
      157.504000
20
      152.500000
11
      158.004200
21
      153.474500
0
LINE
8
0
10
      158.004200
20
      153.474500
11
      157.500000
21
      148.500000
0
LINE
8
0
10
      157.500000
20
      148.500000
11
      157.500000
21
      208.500000
0
LINE
8
0
10
      157.500000
20
      208.500000
11
      157.994200
21
      203.524500
0
LINE
8
0
10
      157.994200
20
      203.524500
11
      157.496000
21
      204.500000
0
LINE
8
0
10
      157.496000
20
      204.500000
11
      156.995900
21
      203.525500
0
LINE
8
0
10
      156.995900
20
      203.525500
11
      157.500000
21
      208.500000
0
LINE
8
0
10
      177.500000
20
      128.500000
11
      177.003800
21
      133.475300
0
LINE
8
0
10
      177.003800
20
      133.475300
11
      177.502400
21
      132.500000
0
LINE
8
0
10
      177.502400
20
      132.500000
11
      178.002200
21
      133.474700
0
LINE
8
0
10
      178.002200
20
      133.474700
11
      177.500000
21
      128.500000
0
LINE
8
0
10
      177.500000
20
      128.500000
11
      177.500000
21
      228.500000
0
LINE
8
0
10
      177.500000
20
      228.500000
11
      177.996200
21
      223.524700
0
LINE
8
0
10
      177.996200
20
      223.524700
11
      177.497600
21
      224.500000
0
LINE
8
0
10
      177.497600
20
      224.500000
11
      176.997800
21
      223.525300
0
LINE
8
0
10
      176.997800
20
      223.525300
11
      177.500000
21
      228.500000
0
LINE
8
0
10
      187.500000
20
      107.298900
11
      187.002900
21
      112.274100
0
LINE
8
0
10
      187.002900
20
      112.274100
11
      187.501700
21
      111.298900
0
LINE
8
0
10
      187.501700
20
      111.298900
11
      188.001300
21
      112.273700
0
LINE
8
0
10
      188.001300
20
      112.273700
11
      187.500000
21
      107.298900
0
LINE
8
0
10
      187.500000
20
      107.298900
11
      187.500000
21
      249.701100
0
LINE
8
0
10
      187.500000
20
      249.701100
11
      187.997100
21
      244.725900
0
LINE
8
0
10
      187.997100
20
      244.725900
11
      187.498300
21
      245.701100
0
LINE
8
0
10
      187.498300
20
      245.701100
11
      186.998700
21
      244.726300
0
LINE
8
0
10
      186.998700
20
      244.726300
11
      187.500000
21
      249.701100
0
LINE
8
0
10
      197.500000
20
       91.048900
11
      197.002500
21
       96.024090
0
LINE
8
0
10
      197.002500
20
       96.024090
11
      197.501400
21
       95.048900
0
LINE
8
0
10
      197.501400
20
       95.048900
11
      198.000900
21
       96.023740
0
LINE
8
0
10
      198.000900
20
       96.023740
11
      197.500000
21
       91.048900
0
LINE
8
0
10
      197.500000
20
       91.048900
11
      197.500000
21
      265.951100
0
LINE
8
0
10
      197.500000
20
      265.951100
11
      197.997500
21
      260.975900
0
LINE
8
0
10
      197.997500
20
      260.975900
11
      197.498600
21
      261.951100
0
LINE
8
0
10
      197.498600
20
      261.951100
11
      196.999100
21
      260.976300
0
LINE
8
0
10
      196.999100
20
      260.976300
11
      197.500000
21
      265.951100
0
LINE
8
0
10
       79.500000
20
      264.351100
11
       79.500000
21
      273.951100
0
LINE
8
0
10
       88.000000
20
      241.000000
11
       66.500000
21
      241.000000
0
LINE
8
0
10
       88.000000
20
      216.000000
11
       66.500000
21
      216.000000
0
LINE
8
0
10
       69.500000
20
      216.000000
11
       69.012790
21
      220.976200
0
LINE
8
0
10
       69.012790
20
      220.976200
11
       69.509610
21
      220.000000
0
LINE
8
0
10
       69.509610
20
      220.000000
11
       70.011120
21
      220.973800
0
LINE
8
0
10
       70.011120
20
      220.973800
11
       69.500000
21
      216.000000
0
LINE
8
0
10
       69.500000
20
      216.000000
11
       69.500000
21
      241.000000
0
LINE
8
0
10
       69.500000
20
      241.000000
11
       69.987230
21
      236.023800
0
LINE
8
0
10
       69.987230
20
      236.023800
11
       69.490400
21
      237.000000
0
LINE
8
0
10
       69.490400
20
      237.000000
11
       68.988890
21
      236.026200
0
LINE
8
0
10
       68.988890
20
      236.026200
11
       69.500000
21
      241.000000
0
LINE
8
0
10
       88.000000
20
      241.000000
11
       88.000000
21
      273.951100
0
LINE
8
0
10
      105.000000
20
      241.000000
11
      105.000000
21
      273.951100
0
LINE
8
0
10
      113.500000
20
      241.000000
11
      113.500000
21
      273.951100
0
LINE
8
0
10
       72.500000
20
      271.951100
11
       79.500000
21
      271.951100
0
LINE
8
0
10
       79.500000
20
      271.951100
11
       74.524980
21
      271.451900
0
LINE
8
0
10
       74.524980
20
      271.451900
11
       75.500000
21
      271.951100
0
LINE
8
0
10
       75.500000
20
      271.951100
11
       74.524980
21
      272.450300
0
LINE
8
0
10
       74.524980
20
      272.450300
11
       79.500000
21
      271.951100
0
LINE
8
0
10
       79.500000
20
      271.951100
11
       88.000000
21
      271.951100
0
LINE
8
0
10
       88.000000
20
      271.951100
11
       92.975020
21
      272.450300
0
LINE
8
0
10
       92.975020
20
      272.450300
11
       92.000000
21
      271.951100
0
LINE
8
0
10
       92.000000
20
      271.951100
11
       92.975020
21
      271.451900
0
LINE
8
0
10
       92.975020
20
      271.451900
11
       88.000000
21
      271.951100
0
LINE
8
0
10
       88.000000
20
      271.951100
11
       94.000000
21
      271.951100
0
LINE
8
0
10
       99.000000
20
      271.951100
11
      105.000000
21
      271.951100
0
LINE
8
0
10
      105.000000
20
      271.951100
11
      100.025000
21
      271.451900
0
LINE
8
0
10
      100.025000
20
      271.451900
11
      101.000000
21
      271.951100
0
LINE
8
0
10
      101.000000
20
      271.951100
11
      100.025000
21
      272.450300
0
LINE
8
0
10
      100.025000
20
      272.450300
11
      105.000000
21
      271.951100
0
LINE
8
0
10
      105.000000
20
      271.951100
11
      113.500000
21
      271.951100
0
LINE
8
0
10
      113.500000
20
      271.951100
11
      118.475000
21
      272.450300
0
LINE
8
0
10
      118.475000
20
      272.450300
11
      117.500000
21
      271.951100
0
LINE
8
0
10
      117.500000
20
      271.951100
11
      118.475000
21
      271.451900
0
LINE
8
0
10
      118.475000
20
      271.451900
11
      113.500000
21
      271.951100
0
LINE
8
0
10
      113.500000
20
      271.951100
11
      120.500000
21
      271.951100
0
LINE
8
0
10
      104.500000
20
      112.298900
11
      111.500000
21
      112.298900
0
LINE
8
0
10
      111.500000
20
      112.298900
11
      106.525000
21
      111.799700
0
LINE
8
0
10
      106.525000
20
      111.799700
11
      107.500000
21
      112.298900
0
LINE
8
0
10
      107.500000
20
      112.298900
11
      106.525000
21
      112.798100
0
LINE
8
0
10
      106.525000
20
      112.798100
11
      111.500000
21
      112.298900
0
LINE
8
0
10
      113.500000
20
      112.298900
11
      118.475000
21
      112.798000
0
LINE
8
0
10
      118.475000
20
      112.798000
11
      117.500000
21
      112.298900
0
LINE
8
0
10
      117.500000
20
      112.298900
11
      118.475000
21
      111.799700
0
LINE
8
0
10
      118.475000
20
      111.799700
11
      113.500000
21
      112.298900
0
LINE
8
0
10
      113.500000
20
      112.298900
11
      128.500000
21
      112.298900
0
LINE
8
0
10
      111.500000
20
      112.298900
11
      113.500000
21
      112.298900
0
LINE
8
0
10
       56.500000
20
      183.500000
11
       79.500000
21
      183.500000
0
LINE
8
0
10
       79.500000
20
      183.500000
11
       74.524980
21
      183.000800
0
LINE
8
0
10
       74.524980
20
      183.000800
11
       75.500000
21
      183.500000
0
LINE
8
0
10
       75.500000
20
      183.500000
11
       74.524980
21
      183.999200
0
LINE
8
0
10
       74.524980
20
      183.999200
11
       79.500000
21
      183.500000
0
LINE
8
0
10
       81.500000
20
      183.500000
11
       86.475020
21
      183.999200
0
LINE
8
0
10
       86.475020
20
      183.999200
11
       85.500000
21
      183.500000
0
LINE
8
0
10
       85.500000
20
      183.500000
11
       86.475020
21
      183.000800
0
LINE
8
0
10
       86.475020
20
      183.000800
11
       81.500000
21
      183.500000
0
LINE
8
0
10
       81.500000
20
      183.500000
11
       89.500000
21
      183.500000
0
LINE
8
0
10
       79.500000
20
      183.500000
11
       81.500000
21
      183.500000
0
LINE
8
0
10
       79.500000
20
       92.648900
11
       79.500000
21
       54.048900
0
LINE
8
0
10
       81.100000
20
       91.048900
11
       81.100000
21
       78.048900
0
LINE
8
0
10
       71.500000
20
       81.048900
11
       79.500000
21
       81.048900
0
LINE
8
0
10
       79.500000
20
       81.048900
11
       74.524980
21
       80.549730
0
LINE
8
0
10
       74.524980
20
       80.549730
11
       75.500000
21
       81.048900
0
LINE
8
0
10
       75.500000
20
       81.048900
11
       74.524980
21
       81.548070
0
LINE
8
0
10
       74.524980
20
       81.548070
11
       79.500000
21
       81.048900
0
LINE
8
0
10
       79.500000
20
       81.048900
11
       81.100000
21
       81.048900
0
LINE
8
0
10
       81.100000
20
       81.048900
11
       86.075020
21
       81.548050
0
LINE
8
0
10
       86.075020
20
       81.548050
11
       85.100000
21
       81.048890
0
LINE
8
0
10
       85.100000
20
       81.048890
11
       86.075020
21
       80.549720
0
LINE
8
0
10
       86.075020
20
       80.549720
11
       81.100000
21
       81.048900
0
LINE
8
0
10
       81.100000
20
       81.048900
11
      104.100000
21
       81.048900
0
LINE
8
0
10
      113.500000
20
       92.648900
11
      113.500000
21
       64.048900
0
LINE
8
0
10
       79.500000
20
       67.048900
11
       84.475020
21
       67.548050
0
LINE
8
0
10
       84.475020
20
       67.548050
11
       83.500000
21
       67.048890
0
LINE
8
0
10
       83.500000
20
       67.048890
11
       84.475020
21
       66.549720
0
LINE
8
0
10
       84.475020
20
       66.549720
11
       79.500000
21
       67.048900
0
LINE
8
0
10
       79.500000
20
       67.048900
11
      113.500000
21
       67.048900
0
LINE
8
0
10
      113.500000
20
       67.048900
11
      108.525000
21
       66.549730
0
LINE
8
0
10
      108.525000
20
       66.549730
11
      109.500000
21
       67.048900
0
LINE
8
0
10
      109.500000
20
       67.048900
11
      108.525000
21
       67.548070
0
LINE
8
0
10
      108.525000
20
       67.548070
11
      113.500000
21
       67.048900
0
LINE
8
0
10
      132.500000
20
      150.500000
11
      132.500000
21
       54.048900
0
LINE
8
0
10
       79.500000
20
       57.048900
11
       84.475020
21
       57.548050
0
LINE
8
0
10
       84.475020
20
       57.548050
11
       83.500000
21
       57.048890
0
LINE
8
0
10
       83.500000
20
       57.048890
11
       84.475020
21
       56.549720
0
LINE
8
0
10
       84.475020
20
       56.549720
11
       79.500000
21
       57.048900
0
LINE
8
0
10
       79.500000
20
       57.048900
11
      132.500000
21
       57.048900
0
LINE
8
0
10
      132.500000
20
       57.048900
11
      127.525000
21
       56.549730
0
LINE
8
0
10
      127.525000
20
       56.549730
11
      128.500000
21
       57.048900
0
LINE
8
0
10
      128.500000
20
       57.048900
11
      127.525000
21
       57.548070
0
LINE
8
0
10
      127.525000
20
       57.548070
11
      132.500000
21
       57.048900
0
LINE
8
0
10
      132.500000
20
      205.500000
11
      132.500000
21
      215.500000
0
LINE
8
0
10
      132.500000
20
      213.500000
11
      137.475000
21
      213.999200
0
LINE
8
0
10
      137.475000
20
      213.999200
11
      136.500000
21
      213.500000
0
LINE
8
0
10
      136.500000
20
      213.500000
11
      137.475000
21
      213.000800
0
LINE
8
0
10
      137.475000
20
      213.000800
11
      132.500000
21
      213.500000
0
LINE
8
0
10
      132.500000
20
      213.500000
11
      140.500000
21
      213.500000
0
LINE
8
0
10
       84.500000
20
      161.500000
11
       84.038170
21
      166.478600
0
LINE
8
0
10
       84.038170
20
      166.478600
11
       84.530010
21
      165.499900
0
LINE
8
0
10
       84.530010
20
      165.499900
11
       85.036480
21
      166.471100
0
LINE
8
0
10
       85.036480
20
      166.471100
11
       84.500000
21
      161.500000
0
LINE
8
0
10
       84.500000
20
      161.500000
11
       84.500000
21
      169.500000
0
LINE
8
0
10
      147.500000
20
      158.000000
11
      145.453200
21
      161.500000
0
LINE
8
0
10
      145.453200
20
      161.500000
11
      149.546800
21
      161.500000
0
LINE
8
0
10
      149.546800
20
      161.500000
11
      147.500000
21
      158.000000
0
LINE
8
0
10
      147.500000
20
      158.000000
11
      147.500000
21
      154.500000
0
LINE
8
0
10
      144.000000
20
      147.500000
11
      151.000000
21
      147.500000
0
LINE
8
0
10
      151.000000
20
      147.500000
11
      151.000000
21
      154.500000
0
LINE
8
0
10
      151.000000
20
      154.500000
11
      144.000000
21
      154.500000
0
LINE
8
0
10
      144.000000
20
      154.500000
11
      144.000000
21
      147.500000
0
LINE
8
0
10
      147.500000
20
      158.000000
11
      145.862600
21
      161.500000
0
LINE
8
0
10
      147.500000
20
      158.000000
11
      146.271900
21
      161.500000
0
LINE
8
0
10
      147.500000
20
      158.000000
11
      146.681300
21
      161.500000
0
LINE
8
0
10
      147.500000
20
      158.000000
11
      147.090700
21
      161.500000
0
LINE
8
0
10
      147.500000
20
      158.000000
11
      147.500000
21
      161.500000
0
LINE
8
0
10
      147.500000
20
      158.000000
11
      147.909400
21
      161.500000
0
LINE
8
0
10
      147.500000
20
      158.000000
11
      148.318800
21
      161.500000
0
LINE
8
0
10
      147.500000
20
      158.000000
11
      148.728100
21
      161.500000
0
LINE
8
0
10
      147.500000
20
      158.000000
11
      149.137500
21
      161.500000
0
LINE
8
0
10
      141.900000
20
      214.900000
11
      146.100000
21
      214.900000
0
LINE
8
0
10
      144.000000
20
      214.900000
11
      144.000000
21
      219.100000
0
LINE
8
0
10
      140.500000
20
      213.500000
11
      173.400000
21
      213.500000
0
LINE
8
0
10
      173.400000
20
      213.500000
11
      173.400000
21
      220.500000
0
LINE
8
0
10
      173.400000
20
      220.500000
11
      140.500000
21
      220.500000
0
LINE
8
0
10
      140.500000
20
      220.500000
11
      140.500000
21
      213.500000
0
LINE
8
0
10
      147.500000
20
      213.500000
11
      147.500000
21
      220.500000
0
LINE
8
0
10
      166.400000
20
      213.500000
11
      166.400000
21
      220.500000
0
LINE
8
0
10
       84.360000
20
      170.200000
11
       87.667490
21
      175.928800
0
LINE
8
0
10
       88.420000
20
      170.200000
11
       91.727490
21
      175.928800
0
LINE
8
0
10
       84.500000
20
      169.500000
11
      111.100000
21
      169.500000
0
LINE
8
0
10
      111.100000
20
      169.500000
11
      111.100000
21
      176.500000
0
LINE
8
0
10
      111.100000
20
      176.500000
11
       84.500000
21
      176.500000
0
LINE
8
0
10
       84.500000
20
      176.500000
11
       84.500000
21
      169.500000
0
LINE
8
0
10
       93.250000
20
      169.500000
11
       93.250000
21
      176.500000
0
LINE
8
0
10
      146.500000
20
      173.500000
11
      143.035200
21
      176.964800
0
LINE
8
0
10
      156.500000
20
      182.500000
11
      153.035200
21
      185.964800
0
LINE
8
0
10
      176.500000
20
      173.500000
11
      173.035200
21
      176.964800
0
LINE
8
0
10
      186.500000
20
      183.500000
11
      183.035200
21
      186.964800
0
LINE
8
0
10
       68.500000
20
      223.500000
11
       65.035190
21
      226.964800
0
LINE
8
0
10
      196.500000
20
      173.500000
11
      193.035200
21
      176.964800
0
LINE
8
0
10
      126.541600
20
      168.500200
11
      122.500000
21
      161.500000
0
LINE
8
0
10
      122.500000
20
      161.500000
11
      120.479200
21
      165.000100
0
LINE
8
0
10
       72.499800
20
       61.090480
11
       79.500000
21
       57.048900
0
LINE
8
0
10
       79.500000
20
       57.048900
11
       75.999890
21
       55.028110
0
LINE
8
0
10
      139.500200
20
       53.007290
11
      132.500000
21
       57.048900
0
LINE
8
0
10
      132.500000
20
       57.048900
11
      136.000100
21
       59.069670
0
LINE
8
0
10
       75.541570
20
      269.951300
11
       71.500000
21
      262.951100
0
LINE
8
0
10
       71.500000
20
      262.951100
11
       69.479210
21
      266.451200
0
LINE
8
0
10
      413.062400
20
      297.500300
11
      407.000000
21
      287.000000
0
LINE
8
0
10
      407.000000
20
      287.000000
11
      403.968800
21
      292.250200
0
LINE
8
0
10
      424.041600
20
      294.000200
11
      420.000000
21
      287.000000
0
LINE
8
0
10
      420.000000
20
      287.000000
11
      417.979200
21
      290.500100
0
LINE
8
0
10
       69.500000
20
      262.951100
11
       89.500000
21
      262.951500
0
LINE
8
0
10
       91.500000
20
      262.951600
11
       92.500000
21
      262.951600
0
LINE
8
0
10
       94.500000
20
      262.951600
11
      114.500000
21
      262.952100
0
LINE
8
0
10
      119.500000
20
      262.952100
11
      116.500000
21
      262.951100
0
LINE
8
0
10
       76.500000
20
       94.048900
11
       96.500000
21
       94.049400
0
LINE
8
0
10
       98.500000
20
       94.049450
11
       99.500000
21
       94.049480
0
LINE
8
0
10
      101.500000
20
       94.049530
11
      116.500000
21
       94.048900
0
LINE
8
0
10
       78.500000
20
      178.500000
11
       98.500000
21
      178.500400
0
LINE
8
0
10
      100.500000
20
      178.500400
11
      101.500000
21
      178.500400
0
LINE
8
0
10
      103.500000
20
      178.500400
11
      123.500000
21
      178.500800
0
LINE
8
0
10
      125.500000
20
      178.500800
11
      126.500000
21
      178.500900
0
LINE
8
0
10
      128.500000
20
      178.500900
11
      133.500000
21
      178.500000
0
LINE
8
0
10
       85.000000
20
      228.500000
11
      105.000000
21
      228.500900
0
LINE
8
0
10
      110.000000
20
      228.501100
11
      108.000000
21
      228.500000
0
LINE
8
0
10
       85.000000
20
      128.500000
11
      105.000000
21
      128.500900
0
LINE
8
0
10
      110.000000
20
      128.501100
11
      108.000000
21
      128.500000
0
LINE
8
0
10
      264.000000
20
      178.500000
11
      284.000000
21
      178.500500
0
LINE
8
0
10
      286.000000
20
      178.500600
11
      287.000000
21
      178.500600
0
LINE
8
0
10
      289.000000
20
      178.500600
11
      302.000000
21
      178.500000
0
LINE
8
0
10
      283.000000
20
      159.500000
11
      283.000500
21
      179.500000
0
LINE
8
0
10
      283.000500
20
      181.500000
11
      283.000500
21
      182.500000
0
LINE
8
0
10
      283.000600
20
      184.500000
11
      283.000000
21
      201.800000
0
ARC
8
0
10
       88.350000
 20
      173.000000
 40
        1.750000
 50
    0.000000E+00
 51
      180.000000
 0
ARC
8
0
10
       88.350000
 20
      173.000000
 40
        1.750000
 50
      180.000000
 51
      360.000000
 0
ARC
8
0
10
      144.767600
 20
      175.232400
 40
        1.400000
 50
    0.000000E+00
 51
      180.000000
 0
ARC
8
0
10
      144.767600
 20
      175.232400
 40
        1.400000
 50
      180.000000
 51
      360.000000
 0
ARC
8
0
10
      154.767600
 20
      184.232400
 40
        1.400000
 50
    0.000000E+00
 51
      180.000000
 0
ARC
8
0
10
      154.767600
 20
      184.232400
 40
        1.400000
 50
      180.000000
 51
      360.000000
 0
ARC
8
0
10
      174.767600
 20
      175.232400
 40
        1.400000
 50
    0.000000E+00
 51
      180.000000
 0
ARC
8
0
10
      174.767600
 20
      175.232400
 40
        1.400000
 50
      180.000000
 51
      360.000000
 0
ARC
8
0
10
      184.767600
 20
      185.232400
 40
        1.400000
 50
    0.000000E+00
 51
      180.000000
 0
ARC
8
0
10
      184.767600
 20
      185.232400
 40
        1.400000
 50
      180.000000
 51
      360.000000
 0
ARC
8
0
10
       66.767590
 20
      225.232400
 40
        1.400000
 50
    0.000000E+00
 51
      180.000000
 0
ARC
8
0
10
       66.767590
 20
      225.232400
 40
        1.400000
 50
      180.000000
 51
      360.000000
 0
ARC
8
0
10
      194.767600
 20
      175.232400
 40
        1.400000
 50
    0.000000E+00
 51
      180.000000
 0
ARC
8
0
10
      194.767600
 20
      175.232400
 40
        1.400000
 50
      180.000000
 51
      360.000000
 0
LINE
8
0
10
       40.000000
20
       15.000000
11
      435.000000
21
       15.000000
0
LINE
8
0
10
      435.000000
20
       15.000000
11
      435.000000
21
      302.000000
0
LINE
8
0
10
      435.000000
20
      302.000000
11
       40.000000
21
      302.000000
0
LINE
8
0
10
       40.000000
20
      302.000000
11
       40.000000
21
       15.000000
0
LINE
8
0
10
       40.000000
20
      288.000000
11
      110.000000
21
      288.000000
0
LINE
8
0
10
      110.000000
20
      288.000000
11
      110.000000
21
      302.000000
0
LINE
8
0
10
       40.000000
20
       15.000000
11
       26.000000
21
       15.000000
0
LINE
8
0
10
       26.000000
20
       15.000000
11
       26.000000
21
      160.000000
0
LINE
8
0
10
       26.000000
20
      160.000000
11
       40.000000
21
      160.000000
0
LINE
8
0
10
       33.000000
20
      160.000000
11
       33.000000
21
       15.000000
0
LINE
8
0
10
       26.000000
20
       40.000000
11
       40.000000
21
       40.000000
0
LINE
8
0
10
       40.000000
20
       75.000000
11
       26.000000
21
       75.000000
0
LINE
8
0
10
       26.000000
20
      100.000000
11
       40.000000
21
      100.000000
0
LINE
8
0
10
       40.000000
20
      125.000000
11
       26.000000
21
      125.000000
0
LINE
8
0
10
      250.000000
20
       15.000000
11
      250.000000
21
       70.000000
0
LINE
8
0
10
      250.000000
20
       70.000000
11
      435.000000
21
       70.000000
0
LINE
8
0
10
      250.000000
20
       65.000000
11
      315.000000
21
       65.000000
0
LINE
8
0
10
      250.000000
20
       65.000000
11
      315.000000
21
       65.000000
0
LINE
8
0
10
      250.000000
20
       60.000000
11
      315.000000
21
       60.000000
0
LINE
8
0
10
      250.000000
20
       55.000000
11
      435.000000
21
       55.000000
0
LINE
8
0
10
      250.000000
20
       50.000000
11
      315.000000
21
       50.000000
0
LINE
8
0
10
      250.000000
20
       45.000000
11
      315.000000
21
       45.000000
0
LINE
8
0
10
      250.000000
20
       40.000000
11
      315.000000
21
       40.000000
0
LINE
8
0
10
      250.000000
20
       35.000000
11
      315.000000
21
       35.000000
0
LINE
8
0
10
      385.000000
20
       50.000000
11
      435.000000
21
       50.000000
0
LINE
8
0
10
      385.000000
20
       35.000000
11
      435.000000
21
       35.000000
0
LINE
8
0
10
      250.000000
20
       30.000000
11
      435.000000
21
       30.000000
0
LINE
8
0
10
      250.000000
20
       25.000000
11
      315.000000
21
       25.000000
0
LINE
8
0
10
      250.000000
20
       20.000000
11
      315.000000
21
       20.000000
0
LINE
8
0
10
      257.000000
20
       45.000000
11
      257.000000
21
       70.000000
0
LINE
8
0
10
      267.000000
20
       15.000000
11
      267.000000
21
       70.000000
0
LINE
8
0
10
      290.000000
20
       15.000000
11
      290.000000
21
       70.000000
0
LINE
8
0
10
      305.000000
20
       15.000000
11
      305.000000
21
       70.000000
0
LINE
8
0
10
      315.000000
20
       15.000000
11
      315.000000
21
       70.000000
0
LINE
8
0
10
      385.000000
20
       15.000000
11
      385.000000
21
       55.000000
0
LINE
8
0
10
      390.000000
20
       35.000000
11
      390.000000
21
       50.000000
0
LINE
8
0
10
      395.000000
20
       35.000000
11
      395.000000
21
       50.000000
0
LINE
8
0
10
      400.000000
20
       35.000000
11
      400.000000
21
       55.000000
0
LINE
8
0
10
      405.000000
20
       30.000000
11
      405.000000
21
       35.000000
0
LINE
8
0
10
      417.000000
20
       35.000000
11
      417.000000
21
       55.000000
0
LINE
8
0
10
      435.000000
20
      282.000000
11
      325.000000
21
      282.000000
0
LINE
8
0
10
      435.000000
20
      274.000000
11
      325.000000
21
      274.000000
0
LINE
8
0
10
      435.000000
20
      266.000000
11
      325.000000
21
      266.000000
0
LINE
8
0
10
      435.000000
20
      258.000000
11
      325.000000
21
      258.000000
0
LINE
8
0
10
      435.000000
20
      242.000000
11
      325.000000
21
      242.000000
0
LINE
8
0
10
      435.000000
20
      234.000000
11
      325.000000
21
      234.000000
0
LINE
8
0
10
      435.000000
20
      218.000000
11
      325.000000
21
      218.000000
0
LINE
8
0
10
      435.000000
20
      202.000000
11
      325.000000
21
      202.000000
0
LINE
8
0
10
      435.000000
20
      194.000000
11
      325.000000
21
      194.000000
0
LINE
8
0
10
      435.000000
20
      186.000000
11
      325.000000
21
      186.000000
0
LINE
8
0
10
      435.000000
20
      178.000000
11
      325.000000
21
      178.000000
0
LINE
8
0
10
      435.000000
20
      162.000000
11
      325.000000
21
      162.000000
0
LINE
8
0
10
      325.000000
20
      282.000000
11
      325.000000
21
      162.000000
0
LINE
8
0
10
      390.000000
20
      282.000000
11
      390.000000
21
      162.000000
0
LINE
8
0
10
      400.000000
20
      282.000000
11
      400.000000
21
      178.000000
0
TEXT
8
0
10
      298.120000
20
      209.800000
40
        2.975000
1
 J 9                                                               
50
    0.000000E+00
7
MY
0
TEXT
8
0
10
      302.300000
20
      208.800000
40
        2.125000
1
 S                                                                 
50
    0.000000E+00
7
MY
0
TEXT
8
0
10
      310.000000
20
      181.800000
40
        2.125000
1
 +0,2                                                              
50
       90.000000
7
MY
0
TEXT
8
0
10
      251.620000
20
      152.500000
40
        2.975000
1
 R0,4                                                              
50
    0.000000E+00
7
MY
0
TEXT
8
0
10
      264.300000
20
      152.500000
40
        2.125000
1
 MAX                                                               
50
    0.000000E+00
7
MY
0
TEXT
8
0
10
      264.320000
20
      203.550000
40
        2.975000
1
 A                                                                 
50
    0.000000E+00
7
MY
0
TEXT
8
0
10
      245.420000
20
      203.550000
40
        2.975000
1
 0                                                                 
50
    0.000000E+00
7
MY
0
TEXT
8
0
10
      263.620000
20
      196.550000
40
        2.975000
1
 A                                                                 
50
    0.000000E+00
7
MY
0
TEXT
8
0
10
      243.553300
20
      196.550000
40
        2.975000
1
 T                                                                 
50
    0.000000E+00
7
MY
0
TEXT
8
0
10
      246.120000
20
      196.550000
40
        2.975000
1
 0                                                                 
50
    0.000000E+00
7
MY
0
TEXT
8
0
10
      249.300000
20
       46.000000
40
        2.125000
1
 ИЗМ.                                                              
50
    0.000000E+00
7
MY
0
TEXT
8
0
10
      256.300000
20
       46.000000
40
        2.125000
1
 ЛИСТ                                                              
50
    0.000000E+00
7
MY
0
TEXT
8
0
10
      267.300000
20
       46.000000
40
        2.125000
1
 N ДОКУМ.                                                          
50
    0.000000E+00
7
MY
0
TEXT
8
0
10
      288.300000
20
       46.000000
40
        2.125000
1
 ПОДПИСЬ                                                           
50
    0.000000E+00
7
MY
0
TEXT
8
0
10
      304.300000
20
       46.000000
40
        2.125000
1
 ДАТА                                                              
50
    0.000000E+00
7
MY
0
TEXT
8
0
10
      250.300000
20
       41.000000
40
        2.125000
1
 РАЗРАБ.                                                           
50
    0.000000E+00
7
MY
0
TEXT
8
0
10
      250.300000
20
       36.000000
40
        2.125000
1
 ПРОВ.                                                             
50
    0.000000E+00
7
MY
0
TEXT
8
0
10
      250.300000
20
       31.000000
40
        2.125000
1
 Т.КОНТР.                                                          
50
    0.000000E+00
7
MY
0
TEXT
8
0
10
      250.300000
20
       21.000000
40
        2.125000
1
 Н.КОНТР.                                                          
50
    0.000000E+00
7
MY
0
TEXT
8
0
10
      250.300000
20
       16.000000
40
        2.125000
1
 УТВ.                                                              
50
    0.000000E+00
7
MY
0
TEXT
8
0
10
      387.300000
20
       51.000000
40
        2.125000
1
 ЛИТ.                                                              
50
    0.000000E+00
7
MY
0
TEXT
8
0
10
      401.300000
20
       51.000000
40
        2.125000
1
 МАССА                                                             
50
    0.000000E+00
7
MY
0
TEXT
8
0
10
      417.300000
20
       51.000000
40
        2.125000
1
 МАСШТАБ                                                           
50
    0.000000E+00
7
MY
0
TEXT
8
0
10
      388.300000
20
       31.000000
40
        2.125000
1
 ЛИСТ                                                              
50
    0.000000E+00
7
MY
0
TEXT
8
0
10
      409.300000
20
       31.000000
40
        2.125000
1
 ЛИСТОВ                                                            
50
    0.000000E+00
7
MY
0
TEXT
8
0
10
       31.000000
20
       15.300000
40
        2.125000
1
 ИНВ.N ПОДЛ.                                                       
50
       90.000000
7
MY
0
TEXT
8
0
10
       31.000000
20
       40.300000
40
        2.125000
1
 ПОДП. И ДАТА                                                      
50
       90.000000
7
MY
0
TEXT
8
0
10
       31.000000
20
       74.300000
40
        2.125000
1
 ВЗАМ. ИНВ.N                                                       
50
       90.000000
7
MY
0
TEXT
8
0
10
       31.000000
20
       99.300000
40
        2.125000
1
 ИНВ. N ДУБЛ.                                                      
50
       90.000000
7
MY
0
TEXT
8
0
10
       31.000000
20
      125.300000
40
        2.125000
1
 ПОДП. И ДАТА                                                      
50
       90.000000
7
MY
0
TEXT
8
0
10
      393.300000
20
       12.000000
40
        2.125000
1
 ФОРМАТ А                                                          
50
    0.000000E+00
7
MY
0
TEXT
8
0
10
      323.620000
20
      276.500000
40
        2.975000
1
 МОДУЛЬ                                                            
50
    0.000000E+00
7
MY
0
TEXT
8
0
10
      390.620000
20
      276.500000
40
        2.975000
1
 m                                                                 
50
    0.000000E+00
7
MY
0
TEXT
8
0
10
      323.620000
20
      268.500000
40
        2.975000
1
 ЧИСЛО ЗУБЬЕВ                                                      
50
    0.000000E+00
7
MY
0
TEXT
8
0
10
      390.620000
20
      268.500000
40
        2.975000
1
 z                                                                 
50
    0.000000E+00
7
MY
0
TEXT
8
0
10
      323.620000
20
      260.500000
40
        2.975000
1
 УГОЛ НАКЛОНА ЗУБЬЕВ                                               
50
    0.000000E+00
7
MY
0
TEXT
8
0
10
      390.620000
20
      260.500000
40
        2.975000
1
 b                                                                 
50
    0.000000E+00
7
GREEKS
0
TEXT
8
0
10
      323.620000
20
      252.500000
40
        2.975000
1
 НАПРАВЛЕНИЕ                                                       
50
    0.000000E+00
7
MY
0
TEXT
8
0
10
      323.620000
20
      244.500000
40
        2.975000
1
 ЛИНИИ ЗУБА                                                        
50
    0.000000E+00
7
MY
0
TEXT
8
0
10
      323.620000
20
      236.500000
40
        2.975000
1
 ИСХОДНЫЙ КОНТУР                                                   
50
    0.000000E+00
7
MY
0
TEXT
8
0
10
      401.300000
20
      236.500000
40
        2.125000
1
 ГОСТ 13755-81                                                     
50
    0.000000E+00
7
MY
0
TEXT
8
0
10
      323.620000
20
      228.500000
40
        2.975000
1
 КОЭФФИЦИЕНТ СМЕЩЕНИЯ                                              
50
    0.000000E+00
7
MY
0
TEXT
8
0
10
      323.620000
20
      220.500000
40
        2.975000
1
 ИСХОДНОГО КОНТУРА                                                 
50
    0.000000E+00
7
MY
0
TEXT
8
0
10
      390.620000
20
      220.500000
40
        2.975000
1
 X                                                                 
50
    0.000000E+00
7
MY
0
TEXT
8
0
10
      323.620000
20
      212.500000
40
        2.975000
1
 СТЕПЕНЬ ТОЧНОСТИ                                                  
50
    0.000000E+00
7
MY
0
TEXT
8
0
10
      323.620000
20
      204.500000
40
        2.975000
1
 ГОСТ 1643-81                                                      
50
    0.000000E+00
7
MY
0
TEXT
8
0
10
      323.620000
20
      180.500000
40
        2.975000
1
 ДЕЛИТЕЛЬНЫЙ ДИАМЕТР                                               
50
    0.000000E+00
7
MY
0
TEXT
8
0
10
      390.620000
20
      180.500000
40
        2.975000
1
 d                                                                 
50
    0.000000E+00
7
MY
0
TEXT
8
0
10
      323.620000
20
      172.500000
40
        2.975000
1
 ОБОЗНАЧЕНИЕ ЧЕРТЕЖА                                               
50
    0.000000E+00
7
MY
0
TEXT
8
0
10
      323.620000
20
      164.500000
40
        2.975000
1
 СОПРЯЖЕННОГО КОЛЕСА                                               
50
    0.000000E+00
7
MY
0
TEXT
8
0
10
      252.620000
20
      110.000000
40
        2.975000
1
 1.                                                                
50
    0.000000E+00
7
MY
0
TEXT
8
0
10
      252.620000
20
      102.000000
40
        2.975000
1
 2.РАДИУСЫ СКРУГЛЕНИЯ                                              
50
    0.000000E+00
7
MY
0
TEXT
8
0
10
      325.300000
20
      102.000000
40
        2.125000
1
 ММ МАХ                                                            
50
    0.000000E+00
7
MY
0
TEXT
8
0
10
      252.620000
20
       94.000000
40
        2.975000
1
 3.НЕУКАЗАННЫЕ ПРЕДЕЛЬНЫЕ ОТКЛОНЕНИЯ РАЗМЕРОВ:                     
50
    0.000000E+00
7
MY
0
TEXT
8
0
10
      257.620000
20
       86.000000
40
        2.975000
1
 ОТВЕРСТИЙ       ,ВАЛОВ       ,ОСТАЛЬНЫХ                           
50
    0.000000E+00
7
MY
0
TEXT
8
0
10
      414.100000
20
       40.000000
40
        4.250000
1
 1:1                                                               
50
    0.000000E+00
7
MY
0
TEXT
8
0
10
      314.600000
20
       40.000000
40
        4.250000
1
 КОЛЕСО ЗУБЧАТОЕ                                                   
50
    0.000000E+00
7
MY
0
TEXT
8
0
10
      313.120000
20
       20.000000
40
        2.975000
1
 СТАЛЬ                                                             
50
    0.000000E+00
7
MY
0
TEXT
8
0
10
      347.620000
20
       20.000000
40
        2.975000
1
 ГОСТ                                                              
50
    0.000000E+00
7
MY
0
TEXT
8
0
10
      421.620000
20
       31.000000
40
        2.975000
1
 1                                                                 
50
    0.000000E+00
7
MY
0
TEXT
8
0
10
      266.300000
20
       41.000000
40
        2.125000
1
 ПЕТРОВ А.Н.                                                       
50
    0.000000E+00
7
MY
0
TEXT
8
0
10
      266.300000
20
       36.000000
40
        2.125000
1
 ПАВЛОВ А.В.                                                       
50
    0.000000E+00
7
MY
0
TEXT
8
0
10
      266.300000
20
       31.000000
40
        2.125000
1
 САВЕЛЬЕВ Н.                                                       
50
    0.000000E+00
7
MY
0
TEXT
8
0
10
      266.300000
20
       21.000000
40
        2.125000
1
 ВАСИЛЬЕВ К.                                                       
50
    0.000000E+00
7
MY
0
TEXT
8
0
10
      266.300000
20
       16.000000
40
        2.125000
1
 ИВАНОВ И.И.                                                       
50
    0.000000E+00
7
MY
0
TEXT
8
0
10
      336.600000
20
       60.000000
40
        4.250000
1
 ПДМ 01.03.10224                                                   
50
    0.000000E+00
7
MY
0
TEXT
8
0
10
      111.400000
20
      297.000000
40
        4.250000
1
 ПДМ 01.03.10224                                                   
50
      180.000000
7
MY
0
TEXT
8
0
10
      329.620000
20
       20.000000
40
        2.975000
1
 30ХГСА                                                            
50
    0.000000E+00
7
MY
0
TEXT
8
0
10
      359.620000
20
       20.000000
40
        2.975000
1
 4543-81                                                           
50
    0.000000E+00
7
MY
0
TEXT
8
0
10
      381.600000
20
       40.000000
40
        4.250000
1
 Э                                                                 
50
    0.000000E+00
7
MY
0
TEXT
8
0
10
      386.600000
20
       40.000000
40
        4.250000
1
 И                                                                 
50
    0.000000E+00
7
MY
0
TEXT
8
0
10
      391.600000
20
       40.000000
40
        4.250000
1
 У                                                                 
50
    0.000000E+00
7
MY
0
TEXT
8
0
10
      383.620000
20
       25.000000
40
        2.975000
1
 ПДМ                                                               
50
    0.000000E+00
7
MY
0
TEXT
8
0
10
      383.620000
20
       18.000000
40
        2.975000
1
 СЕКТОР АППМиДМ                                                    
50
    0.000000E+00
7
MY
0
TEXT
8
0
10
      413.120000
20
      205.000000
40
        2.975000
1
 -                                                                 
50
    0.000000E+00
7
MY
0
TEXT
8
0
10
      402.620000
20
      245.000000
40
        2.975000
1
 ПРАВОЕ                                                            
50
    0.000000E+00
7
MY
0
TEXT
8
0
10
      416.620000
20
      205.000000
40
        2.975000
1
 В                                                                 
50
    0.000000E+00
7
MY
0
TEXT
8
0
10
      388.120000
20
      165.000000
40
        2.975000
1
 ПДМ 01.03.1033                                                    
50
    0.000000E+00
7
MY
0
TEXT
8
0
10
      259.620000
20
      110.000000
40
        2.975000
1
 235...262HB                                                       
50
    0.000000E+00
7
MY
0
TEXT
8
0
10
      312.620000
20
      102.000000
40
        2.975000
1
 1.6                                                               
50
    0.000000E+00
7
MY
0
TEXT
8
0
10
      287.620000
20
       86.000000
40
        2.975000
1
 +t2                                                               
50
    0.000000E+00
7
MY
0
TEXT
8
0
10
      323.620000
20
       86.000000
40
        2.975000
1
 -t2                                                               
50
    0.000000E+00
7
MY
0
TEXT
8
0
10
      378.620000
20
       86.000000
40
        2.975000
1
 t2/2                                                              
50
    0.000000E+00
7
MY
0
TEXT
8
0
10
      146.500000
20
      182.120000
40
        2.975000
1
 H7                                                                
50
       90.000000
7
MY
0
TEXT
8
0
10
      141.242000
20
      147.650500
40
        4.760000
1
 A                                                                 
50
    0.000000E+00
7
MY
0
TEXT
8
0
10
      163.320000
20
      215.250000
40
        2.975000
1
  A                                                                
50
    0.000000E+00
7
MY
0
TEXT
8
0
10
      147.920000
20
      215.250000
40
        2.975000
1
 0                                                                 
50
    0.000000E+00
7
MY
0
TEXT
8
0
10
       91.920010
20
      171.250000
40
        2.975000
1
 0                                                                 
50
    0.000000E+00
7
MY
0
TEXT
8
0
10
       73.500000
20
      226.800000
40
        2.125000
1
 ОТВ.                                                              
50
       90.000000
7
MY
0
TEXT
8
0
10
      116.120000
20
      112.298900
40
        2.975000
1
 2*45                                                              
50
    0.000000E+00
7
MY
0
TEXT
8
0
10
      129.480000
20
      114.298900
40
        1.275000
1
 0                                                                 
50
    0.000000E+00
7
MY
0
TEXT
8
0
10
      115.120000
20
      108.298900
40
        2.975000
1
 4                                                                 
50
    0.000000E+00
7
MY
0
TEXT
8
0
10
      118.800000
20
      108.298900
40
        2.125000
1
 ФАСКИ                                                             
50
    0.000000E+00
7
MY
0
TEXT
8
0
10
      197.500000
20
      189.800000
40
        2.125000
1
 -                                                                 
50
       90.000000
7
MY
0
TEXT
8
0
10
       93.220000
20
       82.048900
40
        2.975000
1
 *45                                                               
50
    0.000000E+00
7
MY
0
TEXT
8
0
10
      103.580000
20
       84.048900
40
        1.275000
1
 0                                                                 
50
    0.000000E+00
7
MY
0
TEXT
8
0
10
       85.720000
20
       77.048900
40
        2.975000
1
 2                                                                 
50
    0.000000E+00
7
MY
0
TEXT
8
0
10
       89.400000
20
       77.048900
40
        2.125000
1
 ФАСКИ                                                             
50
    0.000000E+00
7
MY
0
TEXT
8
0
10
       54.120000
20
      184.500000
40
        2.975000
1
 1.6*45                                                            
50
    0.000000E+00
7
MY
0
TEXT
8
0
10
       75.480000
20
      186.500000
40
        1.275000
1
 0                                                                 
50
    0.000000E+00
7
MY
0
TEXT
8
0
10
       53.120000
20
      179.500000
40
        2.975000
1
 2                                                                 
50
    0.000000E+00
7
MY
0
TEXT
8
0
10
       58.800000
20
      179.500000
40
        2.125000
1
 ФАСКИ                                                             
50
    0.000000E+00
7
MY
0
TEXT
8
0
10
      409.600000
20
      287.000000
40
        4.250000
1
 (                                                                 
50
    0.000000E+00
7
MY
0
TEXT
8
0
10
      418.600000
20
      287.000000
40
        4.250000
1
 )                                                                 
50
    0.000000E+00
7
MY
0
TEXT
8
0
10
      283.970000
20
      229.043500
40
        2.975000
1
 1.6                                                               
50
    0.000000E+00
0
TEXT
8
0
10
      286.120000
20
      209.800000
40
        2.975000
1
   10                                                              
50
    0.000000E+00
0
TEXT
8
0
10
      313.000000
20
      167.120000
40
        2.975000
1
 37.3                                                              
50
       90.000000
0
TEXT
8
0
10
      245.653300
20
      203.550000
40
        2.975000
1
  .025                                                             
50
    0.000000E+00
0
TEXT
8
0
10
      245.653300
20
      196.550000
40
        2.975000
1
  .16                                                              
50
    0.000000E+00
0
TEXT
8
0
10
      408.620000
20
      276.500000
40
        2.975000
1
   3                                                               
50
    0.000000E+00
0
TEXT
8
0
10
      408.620000
20
      268.500000
40
        2.975000
1
  55                                                               
50
    0.000000E+00
0
TEXT
8
0
10
      408.620000
20
      260.500000
40
        2.975000
1
 12.34                                                             
50
    0.000000E+00
0
TEXT
8
0
10
      408.620000
20
      220.500000
40
        2.975000
1
  0                                                                
50
    0.000000E+00
0
TEXT
8
0
10
      408.620000
20
      180.500000
40
        2.975000
1
 168.90                                                            
50
    0.000000E+00
0
TEXT
8
0
10
      396.600000
20
       40.000000
40
        4.250000
1
 3.7                                                               
50
    0.000000E+00
0
TEXT
8
0
10
      409.300000
20
       12.000000
40
        2.125000
1
  3                                                                
50
    0.000000E+00
0
TEXT
8
0
10
      407.620000
20
      205.000000
40
        2.975000
1
 8                                                                 
50
    0.000000E+00
0
TEXT
8
0
10
      148.153300
20
      215.250000
40
        2.975000
1
  .03                                                              
50
    0.000000E+00
0
TEXT
8
0
10
       90.753330
20
      171.250000
40
        2.975000
1
  .007                                                             
50
    0.000000E+00
0
TEXT
8
0
10
      146.500000
20
      175.120000
40
        2.975000
1
 34                                                                
50
       90.000000
0
TEXT
8
0
10
      156.500000
20
      185.120000
40
        2.975000
1
 60                                                                
50
       90.000000
0
TEXT
8
0
10
      176.500000
20
      175.120000
40
        2.975000
1
 100                                                               
50
       90.000000
0
TEXT
8
0
10
      186.500000
20
      185.120000
40
        2.975000
1
 140                                                               
50
       90.000000
0
TEXT
8
0
10
       68.500000
20
      225.120000
40
        2.975000
1
 25                                                                
50
       90.000000
0
TEXT
8
0
10
       76.370000
20
      272.951100
40
        2.975000
1
  8                                                                
50
    0.000000E+00
0
TEXT
8
0
10
      101.870000
20
      272.951100
40
        2.975000
1
  8                                                                
50
    0.000000E+00
0
TEXT
8
0
10
       73.500000
20
      219.120000
40
        2.975000
1
  6                                                                
50
       90.000000
0
TEXT
8
0
10
      196.500000
20
      175.120000
40
        2.975000
1
 174.9                                                             
50
       90.000000
0
TEXT
8
0
10
      197.500000
20
      191.800000
40
        2.125000
1
  .60                                                              
50
       90.000000
0
TEXT
8
0
10
       85.720000
20
       82.048900
40
        2.975000
1
 1.6                                                               
50
    0.000000E+00
0
TEXT
8
0
10
       89.120000
20
       68.048900
40
        2.975000
1
 34                                                                
50
    0.000000E+00
0
TEXT
8
0
10
       98.620000
20
       58.048900
40
        2.975000
1
  53                                                               
50
    0.000000E+00
0
TEXT
8
0
10
      114.970000
20
      165.743500
40
        2.975000
1
 0                                                                 
50
    0.000000E+00
0
TEXT
8
0
10
      113.470000
20
      165.743500
40
        2.975000
1
  .8                                                               
50
    0.000000E+00
0
TEXT
8
0
10
       75.256470
20
       48.018900
40
        2.975000
1
 3.2                                                               
50
       90.000000
0
TEXT
8
0
10
      139.500200
20
       52.727290
40
        2.975000
1
 3.2                                                               
50
       90.000000
0
TEXT
8
0
10
       62.470000
20
      267.194600
40
        2.975000
1
 1.6                                                               
50
    0.000000E+00
0
TEXT
8
0
10
      393.455000
20
      293.365300
40
        4.462500
1
 6.3                                                               
50
    0.000000E+00
0
ENDSEC
0
EOF
